<?xml version="1.0" standalone="no"?>
<!DOCTYPE svg PUBLIC "-//W3C//DTD SVG 20010904//EN"
 "http://www.w3.org/TR/2001/REC-SVG-20010904/DTD/svg10.dtd">
<svg version="1.0" xmlns="http://www.w3.org/2000/svg"
 width="2000.000000pt" height="499.000000pt" viewBox="0 0 2000.000000 499.000000"
 preserveAspectRatio="xMidYMid meet">

<g transform="translate(0.000000,499.000000) scale(0.100000,-0.100000)"
fill="#000000" stroke="none">
<path d="M9165 4890 c-230 -114 -450 -182 -812 -251 l-63 -12 0 -107 0 -108
126 -31 c180 -45 241 -79 298 -166 19 -27 42 -75 52 -105 18 -53 19 -126 22
-1625 2 -1022 -1 -1610 -7 -1685 -24 -261 -71 -318 -338 -403 l-133 -42 0
-122 0 -123 785 0 785 0 0 124 0 123 -232 80 -233 80 0 1954 c0 1911 2 2051
31 2378 l6 66 -50 28 c-27 15 -56 27 -63 26 -8 0 -86 -36 -174 -79z"/>
<path d="M12765 4909 c-258 -127 -405 -176 -712 -239 -107 -22 -197 -40 -199
-40 -2 0 -4 -49 -4 -110 l0 -110 28 -6 c228 -54 302 -84 357 -146 48 -52 82
-124 95 -199 8 -45 10 -548 8 -1709 l-3 -1645 -23 -69 c-45 -131 -133 -192
-370 -257 l-83 -22 3 -121 3 -121 785 0 785 0 3 114 c1 63 -1 118 -6 123 -5 5
-112 45 -238 88 l-229 78 -3 1678 c-3 1804 3 2219 41 2688 2 25 -5 33 -43 57
-25 15 -52 27 -60 27 -8 0 -69 -26 -135 -59z"/>
<path d="M19775 4919 c-49 -16 -205 -52 -345 -79 -140 -27 -303 -62 -362 -77
-107 -26 -108 -27 -108 -56 0 -16 20 -87 44 -157 133 -381 221 -930 276 -1705
13 -189 70 -1142 70 -1172 0 -23 0 -23 165 -23 l164 0 5 33 c3 17 7 145 10
282 8 357 40 827 111 1635 19 217 42 492 51 610 16 215 33 704 26 728 -5 15 2
16 -107 -19z"/>
<path d="M2055 4683 c-180 -16 -369 -57 -544 -118 -801 -280 -1344 -1011
-1462 -1970 -18 -148 -16 -484 5 -635 90 -664 414 -1211 911 -1542 270 -179
629 -306 990 -349 157 -18 443 -16 550 5 234 46 623 208 955 399 125 72 390
235 408 251 10 10 1 36 -43 129 -30 64 -58 117 -62 117 -3 0 -97 -36 -208 -79
-280 -111 -648 -243 -796 -286 l-124 -37 -170 6 c-544 18 -947 176 -1265 495
-251 252 -392 530 -474 936 -52 252 -70 604 -45 833 39 357 168 736 335 987
87 131 132 172 260 237 284 144 582 198 979 177 327 -17 560 -65 773 -160 48
-22 188 -104 210 -124 2 -2 32 -138 68 -302 35 -164 66 -308 69 -320 5 -23 7
-23 173 -23 l167 0 68 539 c38 296 67 546 65 556 -2 12 -34 27 -113 52 -327
102 -797 194 -1140 223 -112 9 -449 11 -540 3z"/>
<path d="M4975 3154 c-253 -18 -468 -33 -477 -33 -16 -1 -18 -13 -18 -114 l0
-113 90 -17 c50 -9 112 -28 139 -41 63 -32 134 -113 163 -184 l23 -57 6 -940
c6 -1010 6 -1023 60 -1185 73 -224 213 -351 449 -410 109 -28 356 -38 467 -20
260 42 608 197 951 425 23 15 44 26 46 24 2 -2 18 -87 36 -189 17 -102 34
-194 37 -206 3 -14 25 -31 63 -49 l59 -28 98 41 c198 84 337 124 658 190 l90
18 3 106 c3 122 12 112 -108 123 -222 21 -300 98 -320 317 -12 135 -12 1104 0
1812 5 308 8 562 5 564 -4 5 -991 -53 -1122 -65 l-63 -6 0 -112 0 -112 63 -7
c133 -13 287 -72 361 -136 46 -41 91 -113 110 -179 14 -48 16 -159 16 -926 l0
-872 -107 -50 c-129 -61 -225 -94 -365 -127 -171 -41 -253 -49 -461 -43 -220
5 -266 16 -328 78 -77 77 -74 28 -73 1134 1 924 3 1043 30 1353 l7 72 -64 -1
c-35 -1 -271 -16 -524 -35z"/>
<path d="M16775 3155 c-138 -36 -436 -135 -632 -210 -122 -47 -365 -146 -372
-152 -7 -5 -68 -603 -62 -609 2 -2 108 -4 235 -4 l231 0 44 133 c120 356 241
489 472 517 99 12 278 0 373 -25 141 -37 233 -116 256 -220 7 -27 14 -179 17
-337 l6 -286 -39 -11 c-21 -5 -149 -38 -284 -71 -791 -199 -1195 -373 -1355
-581 -92 -119 -119 -217 -119 -429 0 -120 4 -159 22 -223 78 -274 284 -472
575 -553 73 -20 124 -27 245 -31 338 -12 502 51 837 321 71 58 131 103 133
101 2 -2 8 -40 13 -84 18 -161 70 -251 176 -303 67 -33 68 -33 213 -33 131 0
158 4 275 33 72 19 184 52 250 76 l120 42 0 124 0 125 -114 7 c-143 9 -250 39
-297 83 l-34 32 0 880 c0 911 -6 1083 -41 1221 -88 351 -357 503 -886 502
-113 -1 -144 -5 -258 -35z m565 -1939 l0 -434 -62 -53 c-126 -105 -283 -192
-398 -220 -71 -17 -236 -15 -327 4 -263 56 -402 264 -353 528 17 88 62 168
137 240 125 120 240 169 659 280 144 38 272 73 285 78 63 25 59 55 59 -423z"/>
<path d="M10120 3007 l0 -123 78 -18 c156 -36 262 -109 262 -180 0 -96 -220
-385 -539 -709 -117 -119 -263 -250 -321 -288 l-24 -16 479 -599 c263 -329
564 -695 669 -813 l190 -213 50 5 c28 3 214 18 414 33 l362 28 0 122 0 122
-37 12 c-110 35 -262 120 -363 201 -192 154 -633 601 -999 1011 -72 82 -131
150 -131 152 0 3 28 31 61 63 79 74 269 286 473 528 217 257 352 395 425 433
71 39 200 76 362 106 l124 22 3 122 3 122 -771 0 -770 0 0 -123z"/>
<path d="M13672 3008 l3 -121 87 -23 c148 -39 239 -98 253 -165 12 -55 -64
-180 -240 -394 -159 -194 -462 -499 -585 -589 l-60 -44 484 -604 c465 -582
830 -1011 865 -1015 9 -2 196 12 416 30 l400 32 3 120 3 121 -53 18 c-105 37
-254 116 -323 171 -223 178 -698 662 -1102 1120 l-62 70 128 130 c70 71 247
270 393 440 146 171 290 333 320 362 114 107 186 137 443 188 l160 32 3 121 3
122 -771 0 -771 0 3 -122z"/>
<path d="M19421 874 c-215 -58 -359 -275 -322 -485 24 -137 119 -261 248 -322
64 -30 74 -32 183 -32 109 0 119 2 183 32 186 88 286 283 243 473 -55 246
-298 398 -535 334z"/>
</g>
</svg>
